<svg width="41" height="40" viewBox="0 0 41 40" fill="none" xmlns="http://www.w3.org/2000/svg">
<circle cx="20.2363" cy="20" r="20" fill="#FCA311"/>
<path d="M17.1766 13.3533L18.3166 13.0098C18.6929 12.8966 19.0975 12.9241 19.4549 13.0871C19.8124 13.25 20.0984 13.5374 20.2594 13.8955L21.0587 15.6716C21.1974 15.9797 21.2361 16.3235 21.1693 16.6548C21.1024 16.986 20.9335 17.2879 20.6861 17.5183L19.4696 18.651C19.3066 18.8057 19.4302 19.4085 20.0258 20.4401C20.622 21.4722 21.0828 21.8803 21.2953 21.8168L22.8891 21.3299C23.2122 21.2311 23.5581 21.2359 23.8783 21.3435C24.1985 21.451 24.477 21.656 24.6748 21.9297L25.8107 23.503C26.0401 23.8206 26.1464 24.2107 26.1097 24.6008C26.073 24.9908 25.8959 25.3543 25.6112 25.6237L24.7331 26.4547C24.4496 26.723 24.1 26.9113 23.7199 27.0004C23.3398 27.0896 22.9429 27.0764 22.5695 26.9622C20.7297 26.3994 19.0258 24.7292 17.4349 21.975C15.8405 19.2168 15.2384 16.8902 15.6581 14.9894C15.7427 14.6064 15.9281 14.2529 16.195 13.9653C16.4619 13.6777 16.8007 13.4664 17.1766 13.3533Z" fill="white"/>
</svg>
