<svg width="42" height="40" viewBox="0 0 42 40" fill="none" xmlns="http://www.w3.org/2000/svg">
<rect width="41.6717" height="40" rx="10" fill="#2884C7"/>
<path d="M13.8037 20.75H18.4918V19.25H13.8037V12.3845C13.8038 12.3194 13.8215 12.2553 13.8551 12.1987C13.8887 12.1421 13.9372 12.0949 13.9956 12.0618C14.0541 12.0286 14.1205 12.0106 14.1884 12.0096C14.2563 12.0086 14.3232 12.0246 14.3827 12.056L28.8079 19.6715C28.8691 19.7039 28.9202 19.7514 28.9558 19.8092C28.9913 19.867 29.0101 19.9329 29.0101 20C29.0101 20.0671 28.9913 20.133 28.9558 20.1908C28.9202 20.2486 28.8691 20.2961 28.8079 20.3285L14.3827 27.944C14.3232 27.9754 14.2563 27.9914 14.1884 27.9904C14.1205 27.9894 14.0541 27.9714 13.9956 27.9383C13.9372 27.9051 13.8887 27.8579 13.8551 27.8013C13.8215 27.7447 13.8038 27.6807 13.8037 27.6155V20.75Z" fill="white"/>
</svg>
