<svg width="25" height="22" viewBox="0 0 25 22" fill="none" xmlns="http://www.w3.org/2000/svg">
<path d="M23.3476 17.2564L20.1998 15.4914C20.1481 15.4627 20.091 15.4441 20.0319 15.4368C19.9728 15.4294 19.9128 15.4335 19.8552 15.4486C19.7977 15.4638 19.7439 15.4898 19.6967 15.5252C19.6496 15.5606 19.6101 15.6047 19.5805 15.6549L19.0126 16.6108C18.887 16.8214 18.9612 17.0929 19.1781 17.2149L22.3259 18.9798C22.3776 19.0086 22.4347 19.0272 22.4938 19.0345C22.5529 19.0419 22.6129 19.0378 22.6704 19.0226C22.7279 19.0075 22.7818 18.9814 22.829 18.946C22.8761 18.9107 22.9156 18.8666 22.9452 18.8164L23.5131 17.8605C23.6387 17.6499 23.5616 17.3783 23.3476 17.2564V17.2564ZM19.5776 6.34509C19.6072 6.3953 19.6467 6.43937 19.6939 6.47476C19.741 6.51015 19.7949 6.53618 19.8524 6.55137C19.9099 6.56655 19.9699 6.57058 20.029 6.56324C20.0882 6.55589 20.1452 6.53731 20.1969 6.50856L23.3447 4.74358C23.5616 4.62166 23.6358 4.35013 23.5103 4.13955L22.9452 3.1864C22.9156 3.13618 22.8761 3.09212 22.829 3.05672C22.7818 3.02133 22.7279 2.9953 22.6704 2.98012C22.6129 2.96494 22.5529 2.96091 22.4938 2.96825C22.4347 2.97559 22.3776 2.99417 22.3259 3.02292L19.1781 4.78791C19.0739 4.8469 18.9979 4.94356 18.9669 5.05676C18.9359 5.16995 18.9523 5.29046 19.0126 5.39194L19.5776 6.34509ZM24.5434 10.0025H20.8904C20.6393 10.0025 20.4338 10.202 20.4338 10.4458V11.5542C20.4338 11.798 20.6393 11.9975 20.8904 11.9975H24.5434C24.7945 11.9975 25 11.798 25 11.5542V10.4458C25 10.202 24.7945 10.0025 24.5434 10.0025ZM15.7506 0C15.5822 0 15.411 0.0443326 15.254 0.146851L5.13699 6.56675H0.456621C0.205479 6.56675 0 6.76625 0 7.01008V14.9899C0 15.2338 0.205479 15.4332 0.456621 15.4332H5.13699L15.254 21.8531C15.411 21.9529 15.585 22 15.7506 22C16.2272 22 16.6667 21.6315 16.6667 21.1106V0.889421C16.6667 0.368514 16.2272 0 15.7506 0Z" fill="#A8D1A2"/>
</svg>
