<svg width="346" height="25" viewBox="0 0 346 25" fill="none" xmlns="http://www.w3.org/2000/svg">
<path d="M1.38889 13.8889H9.72222C10.0906 13.8889 10.4438 13.7426 10.7043 13.4821C10.9648 13.2216 11.1111 12.8684 11.1111 12.5V1.38889C11.1111 1.02053 10.9648 0.667263 10.7043 0.406796C10.4438 0.146329 10.0906 0 9.72222 0H1.38889C1.02053 0 0.667263 0.146329 0.406796 0.406796C0.146329 0.667263 0 1.02053 0 1.38889V12.5C0 12.8684 0.146329 13.2216 0.406796 13.4821C0.667263 13.7426 1.02053 13.8889 1.38889 13.8889ZM0 23.6111C0 23.9795 0.146329 24.3327 0.406796 24.5932C0.667263 24.8537 1.02053 25 1.38889 25H9.72222C10.0906 25 10.4438 24.8537 10.7043 24.5932C10.9648 24.3327 11.1111 23.9795 11.1111 23.6111V18.0556C11.1111 17.6872 10.9648 17.3339 10.7043 17.0735C10.4438 16.813 10.0906 16.6667 9.72222 16.6667H1.38889C1.02053 16.6667 0.667263 16.813 0.406796 17.0735C0.146329 17.3339 0 17.6872 0 18.0556V23.6111ZM13.8889 23.6111C13.8889 23.9795 14.0352 24.3327 14.2957 24.5932C14.5562 24.8537 14.9094 25 15.2778 25H23.6111C23.9795 25 24.3327 24.8537 24.5932 24.5932C24.8537 24.3327 25 23.9795 25 23.6111V13.8889C25 13.5205 24.8537 13.1673 24.5932 12.9068C24.3327 12.6463 23.9795 12.5 23.6111 12.5H15.2778C14.9094 12.5 14.5562 12.6463 14.2957 12.9068C14.0352 13.1673 13.8889 13.5205 13.8889 13.8889V23.6111ZM15.2778 9.72222H23.6111C23.9795 9.72222 24.3327 9.57589 24.5932 9.31543C24.8537 9.05496 25 8.70169 25 8.33333V1.38889C25 1.02053 24.8537 0.667263 24.5932 0.406796C24.3327 0.146329 23.9795 0 23.6111 0H15.2778C14.9094 0 14.5562 0.146329 14.2957 0.406796C14.0352 0.667263 13.8889 1.02053 13.8889 1.38889V8.33333C13.8889 8.70169 14.0352 9.05496 14.2957 9.31543C14.5562 9.57589 14.9094 9.72222 15.2778 9.72222Z" fill="#2884C7"/>
<path d="M121.5 0C123.205 0 124.536 0.657242 125.495 1.97173C126.454 3.28621 126.933 4.96652 126.933 7.01265C126.945 9.55481 126.164 11.5699 124.589 13.058C124.388 13.2564 124.317 13.5107 124.376 13.8207L124.785 14.7135C124.915 15.0112 125.107 15.2437 125.362 15.4111C125.616 15.5785 126.152 15.8172 126.969 16.1272C127.004 16.1396 127.753 16.3938 129.215 16.8899C130.677 17.3859 131.455 17.6587 131.55 17.7083C132.544 18.1424 133.195 18.595 133.503 19.0662C133.834 19.8475 134 21.8254 134 25H109C109 21.8254 109.166 19.8475 109.497 19.0662C109.805 18.595 110.456 18.1424 111.45 17.7083C111.545 17.6587 112.323 17.3859 113.785 16.8899C115.247 16.3938 115.996 16.1396 116.031 16.1272C116.848 15.8172 117.384 15.5785 117.638 15.4111C117.893 15.2437 118.085 15.0112 118.215 14.7135L118.624 13.8207C118.683 13.5107 118.612 13.2564 118.411 13.058C116.836 11.5699 116.055 9.55481 116.067 7.01265C116.067 4.96652 116.546 3.28621 117.505 1.97173C118.464 0.657242 119.795 0 121.5 0Z" fill="#2884C7"/>
<path d="M239 3.26949C239 2.40237 238.671 1.57076 238.085 0.957612C237.499 0.344463 236.704 0 235.875 0L217.125 0C216.296 0 215.501 0.344463 214.915 0.957612C214.329 1.57076 214 2.40237 214 3.26949V16.3475C214 17.2146 214.329 18.0462 214.915 18.6593C215.501 19.2725 216.296 19.617 217.125 19.617H232.103C232.517 19.617 232.915 19.7893 233.208 20.0959L237.666 24.7599C237.775 24.8744 237.914 24.9524 238.066 24.9841C238.217 25.0158 238.374 24.9998 238.517 24.938C238.66 24.8762 238.782 24.7715 238.868 24.6371C238.954 24.5026 239 24.3445 239 24.1828V3.26949ZM219.469 4.90424H233.531C233.738 4.90424 233.937 4.99035 234.084 5.14364C234.23 5.29693 234.312 5.50483 234.312 5.72161C234.312 5.93839 234.23 6.14629 234.084 6.29958C233.937 6.45287 233.738 6.53898 233.531 6.53898H219.469C219.262 6.53898 219.063 6.45287 218.916 6.29958C218.77 6.14629 218.688 5.93839 218.688 5.72161C218.688 5.50483 218.77 5.29693 218.916 5.14364C219.063 4.99035 219.262 4.90424 219.469 4.90424V4.90424ZM219.469 8.9911H233.531C233.738 8.9911 233.937 9.07722 234.084 9.23051C234.23 9.38379 234.312 9.5917 234.312 9.80848C234.312 10.0253 234.23 10.2332 234.084 10.3864C233.937 10.5397 233.738 10.6259 233.531 10.6259H219.469C219.262 10.6259 219.063 10.5397 218.916 10.3864C218.77 10.2332 218.688 10.0253 218.688 9.80848C218.688 9.5917 218.77 9.38379 218.916 9.23051C219.063 9.07722 219.262 8.9911 219.469 8.9911ZM219.469 13.078H227.281C227.488 13.078 227.687 13.1641 227.834 13.3174C227.98 13.4707 228.062 13.6786 228.062 13.8953C228.062 14.1121 227.98 14.32 227.834 14.4733C227.687 14.6266 227.488 14.7127 227.281 14.7127H219.469C219.262 14.7127 219.063 14.6266 218.916 14.4733C218.77 14.32 218.688 14.1121 218.688 13.8953C218.688 13.6786 218.77 13.4707 218.916 13.3174C219.063 13.1641 219.262 13.078 219.469 13.078Z" fill="#2884C7"/>
<path d="M321 21.25C321 23.375 322.625 25 324.75 25H342.25C344.375 25 346 23.375 346 21.25V11.25H321V21.25ZM342.25 2.5H339.75V1.25C339.75 0.5 339.25 0 338.5 0C337.75 0 337.25 0.5 337.25 1.25V2.5H329.75V1.25C329.75 0.5 329.25 0 328.5 0C327.75 0 327.25 0.5 327.25 1.25V2.5H324.75C322.625 2.5 321 4.125 321 6.25V8.75H346V6.25C346 4.125 344.375 2.5 342.25 2.5Z" fill="#2884C7"/>
</svg>
