<svg width="24" height="24" viewBox="0 0 24 24" fill="none" xmlns="http://www.w3.org/2000/svg">
<path d="M24 19.4551L23.7262 19.2336C22.9493 18.5992 22.2694 17.8717 21.7047 17.0707C21.088 15.9653 20.7183 14.7581 20.6175 13.52V9.87334C20.6228 7.92865 19.8532 6.04911 18.4532 4.58785C17.0533 3.1266 15.1193 2.18421 13.0148 1.93776V0.985489C13.0148 0.724121 12.9015 0.473458 12.6999 0.288643C12.4982 0.103828 12.2247 0 11.9396 0C11.6544 0 11.381 0.103828 11.1793 0.288643C10.9777 0.473458 10.8644 0.724121 10.8644 0.985489V1.95252C8.77873 2.21674 6.86816 3.16483 5.4866 4.62117C4.10504 6.07752 3.34609 7.94344 3.35034 9.87334V13.52C3.24947 14.7581 2.87982 15.9653 2.26309 17.0707C1.70809 17.8697 1.03908 18.5971 0.273826 19.2336L0 19.4551V21.5368H24V19.4551Z" fill="#BBBBBB"/>
<path d="M9.88281 22.3119C9.95344 22.7798 10.2064 23.2085 10.595 23.5188C10.9836 23.8291 11.4815 24 11.9969 24C12.5123 24 13.0102 23.8291 13.3988 23.5188C13.7874 23.2085 14.0404 22.7798 14.111 22.3119H9.88281Z" fill="#BBBBBB"/>
<ellipse cx="17.8863" cy="5.40739" rx="2.91166" ry="2.91166" fill="#FF0505"/>
</svg>
