<svg width="89" height="40" viewBox="0 0 89 40" fill="none" xmlns="http://www.w3.org/2000/svg">
<circle cx="68.2363" cy="20" r="20" fill="#FCA311"/>
<path d="M65.1766 13.3533L66.3166 13.0098C66.6929 12.8966 67.0975 12.9241 67.4549 13.0871C67.8124 13.25 68.0984 13.5374 68.2594 13.8955L69.0587 15.6716C69.1974 15.9797 69.2361 16.3235 69.1693 16.6548C69.1024 16.986 68.9335 17.2879 68.6861 17.5183L67.4696 18.651C67.3066 18.8057 67.4302 19.4085 68.0258 20.4401C68.622 21.4722 69.0828 21.8803 69.2953 21.8168L70.8891 21.3299C71.2122 21.2311 71.5581 21.2359 71.8783 21.3435C72.1985 21.451 72.477 21.656 72.6748 21.9297L73.8107 23.503C74.0402 23.8206 74.1464 24.2107 74.1097 24.6008C74.073 24.9908 73.8959 25.3543 73.6112 25.6237L72.7331 26.4547C72.4496 26.723 72.1 26.9113 71.7199 27.0004C71.3398 27.0896 70.9429 27.0764 70.5695 26.9622C68.7297 26.3994 67.0258 24.7292 65.4349 21.975C63.8405 19.2168 63.2384 16.8902 63.6581 14.9894C63.7427 14.6064 63.9281 14.2529 64.195 13.9653C64.4619 13.6777 64.8007 13.4664 65.1766 13.3533V13.3533Z" fill="white"/>
<circle cx="20" cy="20" r="20" fill="#FCA311"/>
<path d="M27.0586 15.964C27.0586 15.4743 26.8726 15.0047 26.5417 14.6584C26.2107 14.3122 25.7619 14.1177 25.2939 14.1177H14.7056C14.2376 14.1177 13.7887 14.3122 13.4578 14.6584C13.1268 15.0047 12.9409 15.4743 12.9409 15.964V23.3492C12.9409 23.8389 13.1268 24.3085 13.4578 24.6547C13.7887 25.001 14.2376 25.1955 14.7056 25.1955H23.1639C23.3979 25.1955 23.6222 25.2928 23.7877 25.466L26.305 28.0997C26.3667 28.1644 26.4453 28.2085 26.5309 28.2264C26.6165 28.2443 26.7052 28.2352 26.7859 28.2003C26.8666 28.1654 26.9356 28.1063 26.9841 28.0304C27.0326 27.9545 27.0585 27.8652 27.0586 27.7738V15.964ZM16.0292 16.8871H23.9703C24.0873 16.8871 24.1996 16.9358 24.2823 17.0223C24.365 17.1089 24.4115 17.2263 24.4115 17.3487C24.4115 17.4711 24.365 17.5885 24.2823 17.6751C24.1996 17.7616 24.0873 17.8103 23.9703 17.8103H16.0292C15.9121 17.8103 15.7999 17.7616 15.7172 17.6751C15.6345 17.5885 15.588 17.4711 15.588 17.3487C15.588 17.2263 15.6345 17.1089 15.7172 17.0223C15.7999 16.9358 15.9121 16.8871 16.0292 16.8871V16.8871ZM16.0292 19.195H23.9703C24.0873 19.195 24.1996 19.2436 24.2823 19.3302C24.365 19.4168 24.4115 19.5342 24.4115 19.6566C24.4115 19.779 24.365 19.8964 24.2823 19.983C24.1996 20.0695 24.0873 20.1182 23.9703 20.1182H16.0292C15.9121 20.1182 15.7999 20.0695 15.7172 19.983C15.6345 19.8964 15.588 19.779 15.588 19.6566C15.588 19.5342 15.6345 19.4168 15.7172 19.3302C15.7999 19.2436 15.9121 19.195 16.0292 19.195ZM16.0292 21.5029H20.4409C20.5579 21.5029 20.6701 21.5515 20.7529 21.6381C20.8356 21.7246 20.8821 21.842 20.8821 21.9645C20.8821 22.0869 20.8356 22.2043 20.7529 22.2908C20.6701 22.3774 20.5579 22.426 20.4409 22.426H16.0292C15.9121 22.426 15.7999 22.3774 15.7172 22.2908C15.6345 22.2043 15.588 22.0869 15.588 21.9645C15.588 21.842 15.6345 21.7246 15.7172 21.6381C15.7999 21.5515 15.9121 21.5029 16.0292 21.5029Z" fill="white"/>
</svg>
