<svg width="38" height="29" viewBox="0 0 38 29" fill="none" xmlns="http://www.w3.org/2000/svg">
<path d="M14.2546 8.3125C14.2546 9.25733 13.8793 10.1635 13.2112 10.8316C12.5431 11.4997 11.637 11.875 10.6921 11.875C9.7473 11.875 8.84117 11.4997 8.17307 10.8316C7.50497 10.1635 7.12964 9.25733 7.12964 8.3125C7.12964 7.36767 7.50497 6.46153 8.17307 5.79343C8.84117 5.12533 9.7473 4.75 10.6921 4.75C11.637 4.75 12.5431 5.12533 13.2112 5.79343C13.8793 6.46153 14.2546 7.36767 14.2546 8.3125V8.3125Z" fill="#787878"/>
<path d="M3.5625 0C2.61767 0 1.71153 0.375334 1.04343 1.04343C0.375334 1.71153 0 2.61767 0 3.5625L0 24.9375C0 25.8823 0.375334 26.7885 1.04343 27.4566C1.71153 28.1247 2.61767 28.5 3.5625 28.5H34.4375C35.3823 28.5 36.2885 28.1247 36.9566 27.4566C37.6247 26.7885 38 25.8823 38 24.9375V3.5625C38 2.61767 37.6247 1.71153 36.9566 1.04343C36.2885 0.375334 35.3823 0 34.4375 0H3.5625ZM34.4375 2.375C34.7524 2.375 35.0545 2.50011 35.2772 2.72281C35.4999 2.94551 35.625 3.24756 35.625 3.5625V17.8125L26.6594 13.1884C26.4367 13.0768 26.1845 13.0381 25.9386 13.0777C25.6926 13.1174 25.4654 13.2334 25.289 13.4092L16.4778 22.2205L10.1602 18.012C9.93215 17.8601 9.65856 17.7918 9.38585 17.8187C9.11315 17.8455 8.85812 17.9658 8.664 18.1592L2.37975 23.75V25.0325C2.37691 25.0009 2.37533 24.9692 2.375 24.9375V3.5625C2.375 3.24756 2.50011 2.94551 2.72281 2.72281C2.94551 2.50011 3.24756 2.375 3.5625 2.375H34.4375Z" fill="#787878"/>
</svg>
