<svg width="19" height="18" viewBox="0 0 19 18" fill="none" xmlns="http://www.w3.org/2000/svg">
<path d="M9.37612 2.25C8.75444 2.25 8.15823 2.48705 7.71864 2.90901C7.27905 3.33097 7.03209 3.90326 7.03209 4.5V9C7.03209 9.59674 7.27905 10.169 7.71864 10.591C8.15823 11.0129 8.75444 11.25 9.37612 11.25C9.99779 11.25 10.594 11.0129 11.0336 10.591C11.4732 10.169 11.7201 9.59674 11.7201 9V4.5C11.7201 3.90326 11.4732 3.33097 11.0336 2.90901C10.594 2.48705 9.99779 2.25 9.37612 2.25ZM9.37612 0.75C9.88915 0.75 10.3972 0.846997 10.8712 1.03545C11.3451 1.22391 11.7758 1.50013 12.1386 1.84835C12.5014 2.19657 12.7891 2.60997 12.9855 3.06494C13.1818 3.51991 13.2828 4.00754 13.2828 4.5V9C13.2828 9.99456 12.8712 10.9484 12.1386 11.6517C11.4059 12.3549 10.4122 12.75 9.37612 12.75C8.33999 12.75 7.3463 12.3549 6.61365 11.6517C5.881 10.9484 5.4694 9.99456 5.4694 9V4.5C5.4694 3.50544 5.881 2.55161 6.61365 1.84835C7.3463 1.14509 8.33999 0.75 9.37612 0.75V0.75ZM1.71271 10.4715L3.2457 10.1768C3.53042 11.5361 4.29663 12.7589 5.41417 13.6374C6.53171 14.5159 7.93164 14.9959 9.37612 14.9959C10.8206 14.9959 12.2205 14.5159 13.3381 13.6374C14.4556 12.7589 15.2218 11.5361 15.5065 10.1768L17.0395 10.4715C16.3269 13.9088 13.1656 16.5 9.37612 16.5C5.58661 16.5 2.42529 13.9088 1.71271 10.4715Z" fill="#9F9F9F"/>
</svg>
