<svg width="28" height="23" viewBox="0 0 28 23" fill="none" xmlns="http://www.w3.org/2000/svg">
<path d="M25.4074 3.53846H21L19.95 0.669781C19.8775 0.473484 19.7445 0.303808 19.5694 0.183929C19.3942 0.0640505 19.1853 -0.000184069 18.9713 3.9619e-07H9.0287C8.5912 3.9619e-07 8.19907 0.268544 8.05324 0.669781L7 3.53846H2.59259C1.16019 3.53846 0 4.66951 0 6.06593V20.4725C0 21.869 1.16019 23 2.59259 23H25.4074C26.8398 23 28 21.869 28 20.4725V6.06593C28 4.66951 26.8398 3.53846 25.4074 3.53846ZM14 17.9451C11.1352 17.9451 8.81481 15.683 8.81481 12.8901C8.81481 10.0973 11.1352 7.83517 14 7.83517C16.8648 7.83517 19.1852 10.0973 19.1852 12.8901C19.1852 15.683 16.8648 17.9451 14 17.9451ZM10.8889 12.8901C10.8889 13.6945 11.2167 14.466 11.8001 15.0347C12.3836 15.6035 13.1749 15.9231 14 15.9231C14.8251 15.9231 15.6164 15.6035 16.1999 15.0347C16.7833 14.466 17.1111 13.6945 17.1111 12.8901C17.1111 12.0857 16.7833 11.3143 16.1999 10.7455C15.6164 10.1767 14.8251 9.85714 14 9.85714C13.1749 9.85714 12.3836 10.1767 11.8001 10.7455C11.2167 11.3143 10.8889 12.0857 10.8889 12.8901Z" fill="white"/>
</svg>
