<svg width="96" height="106" viewBox="0 0 96 106" fill="none" xmlns="http://www.w3.org/2000/svg">
<path d="M48.4613 43.1349C48.4306 43.4125 48.2577 43.5127 48.0003 43.5166C48.154 43.3855 48.3076 43.2622 48.4613 43.1349Z" fill="#597187"/>
<path d="M48.1809 41.7973L48.1232 41.8975C48.1232 41.8975 48.0003 41.8821 48.0003 41.8783C48.0464 41.8012 48.104 41.7742 48.1809 41.7973Z" fill="#597187"/>
<path d="M48.0003 32.5027L48.0541 32.4873L48.0003 32.5027Z" fill="#597187"/>
<path d="M51.5645 5.12045C51.5645 5.12045 51.5914 5.08575 51.5914 5.0819C51.5875 5.0819 51.5645 5.12045 51.5645 5.12045Z" fill="white"/>
<path d="M69.4774 103.747C66.2463 105.586 62.8231 106.064 59.1656 105.405C54.9548 104.646 51.7698 102.34 49.2226 99.0287C47.8318 97.2207 47.8817 97.1937 46.4602 98.994C39.6907 107.572 27.723 108.003 20.3541 99.553C18.7751 97.7411 17.1269 96.5769 15.1176 95.4744C10.1883 92.772 7.54123 88.4813 7.59886 82.7875C7.61807 80.8869 7.13014 79.5993 5.63562 78.385C1.37105 74.9232 -1.06091 68.0381 1.92045 61.8199C2.60432 60.3935 2.52748 59.2717 1.68225 57.9032C-1.04554 53.5007 -0.377041 46.2918 3.1153 42.2016C4.11036 41.0335 4.46766 40.0351 4.19104 38.4237C3.40344 33.84 5.04396 29.6881 7.89084 26.3188C9.25474 24.7074 11.3909 23.3697 13.6538 22.7067C14.8832 22.3481 15.2789 21.7082 15.0561 20.2857C14.4337 16.3266 15.6862 12.8262 18.825 10.3628C24.3459 6.02591 30.3816 2.62576 37.2126 0.66355C41.0776 -0.446702 44.5047 -0.358036 47.6013 2.44072C47.9202 2.72985 48.3812 2.85321 48.7769 3.05753C48.8 4.59569 49.9794 5.72907 50.2177 7.19399C50.21 12.1246 50.1984 17.0552 50.1946 21.9858C50.1946 22.9303 50.0755 23.9249 51.6046 23.1076C52.5459 22.6064 53.6255 22.2556 54.6782 22.1014C55.9076 21.9202 57.3675 21.6889 57.9169 23.3158C58.2819 24.399 56.9334 25.6249 55.1738 25.9526C55.047 25.9757 54.9202 26.0181 54.7973 26.0104C52.5805 25.8909 51.4932 27.3211 50.5788 29.0443C49.7797 30.5555 50.0678 32.1322 50.0717 33.7282C50.137 52.7644 50.16 71.8006 50.1908 90.8368C49.8181 92.1745 49.4646 93.5122 49.0727 94.8422C48.8384 95.6402 48.9421 96.361 49.4224 97.0357C52.761 101.75 57.0755 104.642 63.0575 104.692C65.2781 104.711 67.3566 104.164 69.4774 103.747ZM45.8647 77.3287C45.8647 75.1737 45.8647 73.4583 45.8647 71.7389C45.8686 60.9602 45.8686 50.1815 45.8762 39.4028C45.8762 38.628 45.8378 37.8685 45.4844 37.1515C44.4393 35.0312 43.0793 33.3928 40.4283 33.4044C39.4294 33.4083 38.4882 32.9996 38.2884 31.8431C38.0809 30.6211 39.0683 30.1238 39.9097 29.7383C41.481 29.0251 43.0639 29.4453 44.5431 30.1083C45.5535 30.5632 45.9262 30.382 45.9223 29.2487C45.8993 22.6334 45.9915 16.0182 45.8724 9.40678C45.8071 5.68667 42.9064 3.28498 39.5293 3.9172C38.0271 4.19862 36.5057 4.53786 35.088 5.09684C33.3553 5.77919 31.4651 6.21095 29.7439 7.6643C32.7752 8.94803 34.9881 10.8023 36.3443 13.5625C37.1781 15.2587 36.8515 16.4461 35.1956 17.2094C33.5474 17.9727 32.9212 16.7815 32.3718 15.5401C31.0271 12.4985 27.335 10.5787 24.3498 11.3574C20.7191 12.3058 18.7751 15.1893 19.1862 19.0058C19.3514 20.5286 19.8201 21.4769 21.6566 21.7815C28.7642 22.9534 33.3784 28.8555 33.459 35.382C33.4783 36.8084 32.2834 38.1384 31.0501 38.0729C29.5825 37.9958 29.4211 36.8739 29.3328 35.7328C29.3136 35.4784 29.3021 35.2201 29.2713 34.9657C28.5682 28.7051 22.7707 24.6342 16.1242 25.7444C10.8107 26.6311 7.03793 32.5679 8.62466 38.254C9.26626 40.5555 8.62466 41.7043 7.1724 43.2155C2.72726 47.8261 3.3535 55.2046 8.34419 59.2255C10.5379 60.9949 13.0275 61.8045 15.8245 61.685C16.785 61.6426 17.684 61.7582 18.0029 62.8145C18.3256 63.89 17.5341 64.4606 16.7811 64.9772C15.7207 65.7096 14.5028 65.8754 13.2888 65.6595C11.2794 65.301 9.28163 64.8847 7.47207 63.8091C5.67788 62.7451 5.42431 62.9109 5.05932 64.9733C4.24099 69.6109 6.38096 74.2447 10.465 76.5924C11.5599 77.2208 12.5127 77.7374 12.1746 79.3719C10.7992 86.0373 13.8267 91.0372 20.3004 92.9378C21.3338 93.2423 22.06 93.7126 22.6055 94.7381C24.9376 99.129 28.6528 101.369 33.6127 101.558C38.3691 101.739 42.8027 99.0827 44.5892 94.9231C46.8175 89.7458 46.0568 84.1714 42.8526 80.6826C41.1353 78.8129 39.0721 77.6872 36.7209 76.9586C35.8257 76.6811 35.0342 76.3303 35.0189 75.1815C35.0035 74.0558 35.8065 73.6741 36.6171 73.2501C37.4508 72.8145 38.2384 73.0612 39.0299 73.3349C41.458 74.1714 43.6556 75.4436 45.8647 77.3287Z" fill="white"/>
<path d="M23.2869 60.1048C21.704 60.1395 20.6552 59.9815 20.5169 58.6399C20.344 56.9745 21.6695 56.5466 22.8566 56.4117C25.0696 56.165 26.9329 55.4325 28.293 53.5975C29.5685 51.8782 29.5109 51.6777 27.4939 51.1265C20.6821 49.2722 17.0207 43.879 16.3829 37.0748C16.2638 35.7911 17.889 34.0679 19.1568 34.1142C20.6091 34.1681 20.7973 35.1627 20.8012 36.4041C20.8319 41.566 23.7672 45.7063 28.5312 47.1211C32.2771 48.2313 35.7387 47.5875 38.7008 44.8659C39.2618 44.3493 39.8688 43.8674 40.5066 43.4549C41.2173 42.9962 41.9588 42.9538 42.5774 43.6669C43.1844 44.3647 43.1037 45.0933 42.5582 45.7602C40.8254 47.8728 38.7854 49.6268 36.1421 50.4364C34.6822 50.8836 33.7908 51.6893 33.057 53.0308C30.844 57.0786 27.5515 59.6924 23.2869 60.1048Z" fill="white"/>
<path d="M35.6299 63.6823C36.3407 63.7055 37.0975 63.852 37.3665 64.7502C37.597 65.5173 37.2474 66.084 36.6519 66.589C35.9296 67.1981 35.1113 67.3947 34.2046 67.5566C28.7182 68.5204 25.4872 71.8974 24.7687 77.2174C24.6266 78.2775 24.8878 78.7979 25.9021 79.276C31.4921 81.8897 33.6974 86.7432 34.3083 92.5489C34.4773 94.168 33.3171 94.912 31.9839 95.0778C30.5777 95.2551 30.182 94.0986 30.0783 92.9459C29.8824 90.7293 29.1601 88.7092 28.0421 86.7971C26.3093 83.8326 23.6545 82.4294 20.3505 82.067C19.9048 82.0169 19.4553 82.0246 19.0096 81.9822C18.0722 81.8897 17.2308 81.643 17.0157 80.5366C16.7967 79.407 17.5036 78.663 18.3757 78.5319C20.4081 78.2312 20.6425 76.9244 20.9998 75.2243C22.5327 68.0154 30.2166 64.1912 35.6299 63.6823Z" fill="white"/>
<path d="M32.9426 104.692C38.9245 104.642 43.239 101.747 46.5777 97.0362C47.0541 96.3615 47.1578 95.6406 46.9273 94.8426C46.5354 93.5126 46.1819 92.1711 45.8093 90.8372C45.8438 71.8011 45.8631 52.7649 45.9284 33.7287C45.9322 32.1327 46.2242 30.556 45.4212 29.0448C44.5068 27.3178 43.4196 25.8876 41.2028 26.0109C41.0798 26.0186 40.9492 25.9762 40.8263 25.9531C39.0666 25.6293 37.7181 24.3995 38.0831 23.3162C38.6325 21.6856 40.0924 21.9207 41.3219 22.1019C42.3784 22.2561 43.4541 22.6069 44.3954 23.1081C45.9245 23.9253 45.8054 22.9307 45.8054 21.9863C45.8016 17.0557 45.7901 12.1251 45.7824 7.19447C46.0206 5.72956 47.2039 4.60003 47.2231 3.05802C47.615 2.85755 48.0799 2.73034 48.3987 2.44121C51.4992 -0.357548 54.9224 -0.446213 58.7874 0.664038C65.6184 2.62625 71.6541 6.0264 77.175 10.3633C80.3138 12.8267 81.5663 16.3271 80.9439 20.29C80.7211 21.7125 81.1168 22.3525 82.3462 22.711C84.6091 23.3741 86.7453 24.7118 88.1092 26.3232C90.9599 29.6925 92.5966 33.8405 91.809 38.428C91.5324 40.0394 91.8897 41.0417 92.8847 42.2059C96.3771 46.2961 97.0456 53.5051 94.3178 57.9075C93.4687 59.276 93.3919 60.394 94.0796 61.8242C97.0609 68.0424 94.629 74.9275 90.3644 78.3932C88.8699 79.6075 88.382 80.8951 88.4012 82.7956C88.4588 88.4895 85.8117 92.7802 80.8825 95.4826C78.8731 96.5851 77.2288 97.7493 75.6459 99.5612C68.277 108.011 56.3093 107.58 49.5398 99.0022C48.1183 97.2019 48.1682 97.2289 46.7774 99.0369C44.2341 102.348 41.0452 104.65 36.8345 105.413C33.1808 106.072 29.7576 105.594 26.5227 103.755C28.6511 104.164 30.7296 104.712 32.9426 104.692ZM56.9817 73.3315C57.7731 73.0578 58.5607 72.8111 59.3944 73.2467C60.2051 73.6708 61.008 74.0563 60.9927 75.1781C60.9773 76.3269 60.1859 76.6777 59.2907 76.9553C56.9394 77.6839 54.8763 78.8095 53.1589 80.6792C49.9547 84.168 49.194 89.7463 51.4224 94.9197C53.2127 99.0793 57.6425 101.735 62.3988 101.554C67.3626 101.365 71.074 99.1256 73.406 94.7347C73.9477 93.7131 74.6777 93.2389 75.7112 92.9344C82.1849 91.0339 85.2085 86.0339 83.8369 79.3685C83.4988 77.734 84.4555 77.2174 85.5466 76.589C89.6306 74.2413 91.7706 69.6075 90.9522 64.9699C90.5872 62.9075 90.3337 62.7417 88.5395 63.8057C86.7299 64.8774 84.7321 65.2938 82.7228 65.6561C81.5087 65.872 80.2908 65.7062 79.2304 64.9738C78.4774 64.4534 77.686 63.8867 78.0087 62.8111C78.3276 61.7548 79.2266 61.6392 80.1871 61.6816C82.984 61.8011 85.4736 60.9915 87.6673 59.2221C92.658 55.2013 93.2843 47.8189 88.8391 43.2121C87.383 41.7009 86.7414 40.5521 87.3869 38.2507C88.9736 32.5683 85.197 26.6277 79.8874 25.7411C73.2408 24.6308 67.4433 28.6979 66.7441 34.9662C66.7172 35.2206 66.7018 35.4789 66.6826 35.7333C66.5942 36.8706 66.4329 37.9924 64.9652 38.0733C63.732 38.1389 62.5371 36.8127 62.5563 35.3825C62.6409 28.8559 67.2551 22.9539 74.3588 21.7819C76.1953 21.4774 76.664 20.5291 76.8292 19.0063C77.2403 15.1898 75.2963 12.3063 71.6656 11.3579C68.6804 10.5792 64.9883 12.499 63.6436 15.5406C63.0942 16.782 62.4718 17.9693 60.8198 17.2099C59.1639 16.4466 58.8373 15.2592 59.671 13.563C61.0272 10.8028 63.2402 8.94852 66.2715 7.66479C64.5503 6.21144 62.6601 5.77967 60.9274 5.09733C59.5097 4.53835 57.9883 4.20296 56.4861 3.91769C53.109 3.28161 50.2121 5.68715 50.143 9.40727C50.0239 16.0187 50.1161 22.6339 50.093 29.2492C50.0892 30.3825 50.458 30.5637 51.4723 30.1088C52.9515 29.4458 54.5343 29.0256 56.1057 29.7387C56.9471 30.1204 57.9345 30.6215 57.727 31.8436C57.5311 33.0001 56.5859 33.4087 55.587 33.4049C52.9361 33.3933 51.576 35.0317 50.531 37.152C50.1776 37.869 50.1391 38.6285 50.1391 39.4033C50.1468 50.182 50.1468 60.9607 50.1507 71.7394C50.1507 73.4549 50.1507 75.1742 50.1507 77.3292C52.3521 75.4441 54.5497 74.1719 56.9817 73.3315Z" fill="white"/>
<path d="M72.7186 60.1049C74.3015 60.1396 75.3503 59.9815 75.4887 58.64C75.6615 56.9746 74.3361 56.5467 73.1489 56.4118C70.9359 56.1651 69.0726 55.4326 67.7125 53.5976C66.437 51.8782 66.4946 51.6778 68.5117 51.1265C75.3235 49.2722 78.9848 43.879 79.6226 37.0749C79.7417 35.7912 78.1166 34.068 76.8487 34.1142C75.3965 34.1682 75.2082 35.1628 75.2044 36.4041C75.1736 41.566 72.2384 45.7063 67.4743 47.1211C63.7284 48.2314 60.2668 47.5876 57.3047 44.8659C56.7438 44.3494 56.1367 43.8675 55.499 43.455C54.7882 42.9962 54.0467 42.9538 53.4282 43.667C52.8211 44.3648 52.9018 45.0934 53.4474 45.7603C55.1801 47.8729 57.2202 49.6269 59.8634 50.4365C61.3234 50.8836 62.2147 51.6893 62.9485 53.0309C65.1615 57.0787 68.454 59.6924 72.7186 60.1049Z" fill="white"/>
<path d="M60.3787 63.6824C59.6679 63.7055 58.911 63.852 58.6421 64.7502C58.4116 65.5174 58.7612 66.0841 59.3567 66.5891C60.079 67.1982 60.8973 67.3948 61.804 67.5567C67.2903 68.5205 70.5214 71.8975 71.2399 77.2174C71.382 78.2776 71.1208 78.798 70.1065 79.276C64.5164 81.8897 62.3112 86.7432 61.7003 92.5489C61.5312 94.168 62.6915 94.9121 64.0247 95.0778C65.4308 95.2552 65.8266 94.0987 65.9303 92.946C66.1262 90.7293 66.8485 88.7093 67.9665 86.7972C69.6992 83.8327 72.354 82.4294 75.6581 82.0671C76.1038 82.017 76.5533 82.0247 76.999 81.9823C77.9364 81.8897 78.7778 81.643 78.9929 80.5366C79.2119 79.4071 78.505 78.6631 77.6329 78.532C75.6005 78.2313 75.3661 76.9245 75.0088 75.2244C73.4759 68.0155 65.792 64.1913 60.3787 63.6824Z" fill="white"/>
<path d="M47.9532 77.7416C61.4142 77.7416 72.3265 66.7922 72.3265 53.2853C72.3265 39.7784 61.4142 28.8289 47.9532 28.8289C34.4921 28.8289 23.5798 39.7784 23.5798 53.2853C23.5798 66.7922 34.4921 77.7416 47.9532 77.7416Z" fill="#EEF7FF"/>
<path d="M59.7478 74.0678L71.7462 76.0762L68.1463 65.5057L59.7478 74.0678Z" fill="#EEF7FF"/>
<path d="M34.6807 52.1057C34.5385 52.3794 34.3618 52.6415 34.2581 52.9306C34.0199 53.6091 33.847 54.3108 33.5896 54.9854C32.9749 56.6006 31.4727 56.8782 30.3201 55.5791C29.9167 55.1242 29.4902 54.9121 28.887 54.9507C28.2608 54.9892 27.6346 54.9661 27.0045 54.9584C26.4666 54.9545 26.1131 54.6654 26.1055 54.2414C26.1016 53.8173 26.4589 53.5166 26.9891 53.5128C27.7075 53.5089 28.426 53.5128 29.1483 53.5089C29.9397 53.505 30.6159 53.7595 31.1346 54.384C31.2421 54.5151 31.3536 54.6423 31.4803 54.7541C31.8031 55.0316 32.0758 54.9854 32.2257 54.5806C32.4332 54.0216 32.5715 53.4357 32.7789 52.8767C32.9518 52.4064 33.1401 51.9283 33.3936 51.4966C33.7164 50.9414 34.235 50.6523 34.8882 50.687C35.5528 50.7217 35.9946 51.138 36.156 51.7279C36.4557 52.815 36.6708 53.933 36.8975 55.0394C37.0627 55.8489 37.1972 56.6662 37.347 57.4796C37.3662 57.5914 37.4238 57.6955 37.4661 57.8034C37.5084 57.7996 37.5506 57.7996 37.5891 57.7957C37.7312 56.6276 37.9195 55.4596 38.0001 54.2876C38.2729 50.4711 38.4842 46.6508 38.7724 42.8343C38.8646 41.6007 39.1066 40.3748 39.3026 39.1489C39.341 38.8983 39.4678 38.6554 39.5907 38.428C39.7713 38.0926 40.0633 37.9153 40.4552 37.923C40.8547 37.9345 41.1505 38.1389 41.2581 38.5012C41.4579 39.1913 41.6884 39.889 41.746 40.5984C41.9996 43.6593 42.2186 46.724 42.4107 49.7926C42.6796 54.0717 42.9102 58.3547 43.1599 62.6338C43.1753 62.9075 43.229 63.1773 43.3289 63.451C43.425 62.3562 43.5326 61.2614 43.6094 60.1666C43.8284 56.9476 44.0051 53.7248 44.251 50.5058C44.3816 48.8096 44.6045 47.1172 44.8158 45.4287C44.8657 45.024 45.0232 44.6307 45.1769 44.2452C45.3267 43.8674 45.5995 43.6207 46.0452 43.6053C46.5024 43.5899 46.8443 43.7981 46.9942 44.1951C47.2208 44.8081 47.4667 45.4403 47.532 46.0841C47.7894 48.5436 47.9623 51.0108 48.2044 53.4703C48.3811 55.2552 48.6193 57.0363 48.8345 58.8211C48.8498 58.9522 48.8998 59.0833 48.9343 59.2105C48.9766 59.2105 49.015 59.2144 49.0573 59.2144C49.2033 58.1774 49.3454 57.1442 49.4914 56.1072C49.7027 54.5883 49.8987 53.0656 50.1446 51.5544C50.2099 51.1573 50.3904 50.7564 50.6056 50.4133C51.1665 49.5035 52.3767 49.4534 52.9146 50.3748C53.2681 50.9761 53.4486 51.7047 53.5946 52.3986C53.8059 53.3855 53.9135 54.3994 54.071 55.3979C54.0979 55.5636 54.1287 55.741 54.2093 55.8836C54.3092 56.0532 54.4629 56.192 54.5974 56.3424C54.7357 56.192 54.9547 56.0609 55.0008 55.8836C55.2121 55.0548 55.3581 54.2067 55.5579 53.374C55.6693 52.9152 55.7961 52.4449 56.0074 52.0286C56.5299 51.0108 57.863 50.8181 58.6238 51.6739C58.9657 52.0594 59.177 52.5837 59.3845 53.0694C59.5881 53.5475 59.6957 54.064 59.8801 54.5498C60.0414 54.9738 60.391 55.0432 60.6907 54.7001C60.9289 54.4264 61.1095 54.0987 61.2939 53.7788C62.0777 52.4411 63.2303 52.1635 64.4943 53.0502C64.9553 53.374 65.4317 53.5243 65.9926 53.5089C66.834 53.4858 67.6754 53.5012 68.5168 53.505C69.0201 53.5089 69.3659 53.798 69.3774 54.2105C69.3889 54.6192 69.0393 54.9507 68.5475 54.9507C67.4641 54.9468 66.373 54.9661 65.2934 54.8736C64.8324 54.835 64.3559 54.6076 63.9487 54.357C63.0843 53.825 62.9421 53.8404 62.4042 54.7194C62.1968 55.0586 61.9816 55.4017 61.7165 55.6909C60.733 56.7548 59.2346 56.5428 58.6238 55.2321C58.3394 54.6269 58.1819 53.9599 57.9399 53.3316C57.8323 53.0501 57.6479 52.7957 57.5019 52.5297C57.4366 52.5374 57.3713 52.5413 57.306 52.549C57.2061 52.8227 57.0793 53.0926 57.0178 53.374C56.8219 54.2568 56.6682 55.1473 56.4569 56.0262C56.3762 56.3616 56.2148 56.6932 56.0189 56.9784C55.2659 58.0964 53.7099 58.0617 53.1298 56.8512C52.7686 56.0956 52.6188 55.2244 52.442 54.3917C52.273 53.5976 52.1962 52.7842 52.0655 51.9823C52.0271 51.7433 51.9311 51.5158 51.8581 51.2845C51.8043 51.2768 51.7505 51.2691 51.6967 51.2614C51.5699 51.7934 51.397 52.3215 51.324 52.8613C51.0858 54.6423 50.9129 56.431 50.6594 58.2082C50.5595 58.8982 50.3482 59.5844 50.0985 60.2359C49.9064 60.7448 49.4991 61.0763 48.8921 61.0648C48.2889 61.0532 47.9316 60.6793 47.7971 60.1743C47.5167 59.1257 47.2324 58.0656 47.1209 56.9939C46.7905 53.8327 46.5485 50.66 46.2642 47.495C46.2373 47.2136 46.1835 46.9361 46.0529 46.6469C46.0068 46.9862 45.9376 47.3216 45.9146 47.6647C45.6879 50.6986 45.4843 53.7325 45.2422 56.7664C45.0194 59.569 44.7735 62.3678 44.5123 65.1665C44.47 65.6022 44.3317 66.0378 44.1818 66.4541C43.9821 67.0208 43.667 67.2444 43.2214 67.2251C42.7065 67.202 42.4376 66.8628 42.3377 66.4233C42.1495 65.6022 41.9381 64.7733 41.8805 63.9406C41.6001 59.6924 41.3695 55.4441 41.116 51.1959C40.9239 47.9769 40.7241 44.758 40.5281 41.539C40.4744 41.5351 40.4167 41.5313 40.3629 41.5274C40.3092 41.9746 40.24 42.4257 40.2093 42.8728C39.9826 46.2923 39.7982 49.7155 39.5292 53.1311C39.3986 54.7965 39.1335 56.4503 38.903 58.1041C38.8607 58.4009 38.734 58.6939 38.5956 58.9676C38.1846 59.7849 37.2625 59.9507 36.6862 59.2336C36.3174 58.7749 36.0369 58.1774 35.9101 57.603C35.6028 56.2113 35.4145 54.7965 35.1571 53.3932C35.0803 52.9615 34.9343 52.5413 34.8228 52.1172C34.7844 52.1172 34.7306 52.1134 34.6807 52.1057Z" fill="#528FC6"/>
</svg>
