<svg width="19" height="18" viewBox="0 0 19 18" fill="none" xmlns="http://www.w3.org/2000/svg">
<path d="M11.5857 5.81773L7.16647 10.0605C7.09184 10.1297 7.03232 10.2124 6.99137 10.3039C6.95042 10.3954 6.92886 10.4938 6.92796 10.5934C6.92706 10.693 6.94683 10.7918 6.98612 10.8839C7.0254 10.9761 7.08342 11.0599 7.15678 11.1303C7.23014 11.2007 7.31738 11.2564 7.41341 11.2941C7.50943 11.3318 7.61232 11.3508 7.71606 11.3499C7.81981 11.349 7.92234 11.3284 8.01767 11.2891C8.11299 11.2497 8.19921 11.1926 8.27129 11.121L12.6913 6.87898C13.131 6.45698 13.378 5.88464 13.378 5.28785C13.378 4.69106 13.131 4.11872 12.6913 3.69673C12.2517 3.27473 11.6555 3.03766 11.0337 3.03766C10.412 3.03766 9.81573 3.27473 9.37611 3.69673L4.95605 7.93948C4.58575 8.28607 4.29083 8.6998 4.08841 9.15665C3.88599 9.6135 3.78008 10.1044 3.77684 10.6008C3.7736 11.0973 3.87309 11.5894 4.06953 12.0487C4.26598 12.5079 4.55547 12.9251 4.92121 13.2762C5.28695 13.6272 5.72167 13.905 6.20014 14.0935C6.67862 14.282 7.19132 14.3774 7.70851 14.3743C8.2257 14.3711 8.73709 14.2693 9.21301 14.075C9.68892 13.8806 10.1199 13.5975 10.4809 13.242L14.901 8.99998L16.0058 10.0605L11.5857 14.3032C11.0778 14.7908 10.4749 15.1775 9.81125 15.4413C9.14764 15.7052 8.43638 15.841 7.7181 15.841C6.99981 15.841 6.28855 15.7052 5.62494 15.4413C4.96133 15.1775 4.35835 14.7908 3.85045 14.3032C3.34254 13.8157 2.93964 13.2369 2.66477 12.5999C2.38989 11.9629 2.24841 11.2802 2.24841 10.5907C2.24841 9.90125 2.38989 9.21853 2.66477 8.58154C2.93964 7.94454 3.34254 7.36576 3.85045 6.87823L8.27129 2.63623C9.0081 1.95313 9.99495 1.57515 11.0193 1.5837C12.0436 1.59224 13.0235 1.98663 13.7478 2.68191C14.4721 3.37719 14.883 4.31773 14.8919 5.30097C14.9008 6.28421 14.507 7.23147 13.7954 7.93873L9.37611 12.183C9.15837 12.3919 8.8999 12.5577 8.61543 12.6707C8.33097 12.7838 8.02609 12.842 7.71821 12.8419C7.41032 12.8419 7.10546 12.7837 6.82103 12.6705C6.53659 12.5574 6.27816 12.3916 6.06047 12.1826C5.84279 11.9736 5.67013 11.7255 5.55234 11.4524C5.43455 11.1794 5.37395 10.8867 5.37398 10.5912C5.37402 10.2957 5.4347 10.003 5.55255 9.73002C5.67041 9.457 5.84313 9.20893 6.06087 8.99998L10.4809 4.75723L11.5857 5.81773Z" fill="#9F9F9F"/>
</svg>
