<svg width="32" height="47" viewBox="0 0 32 47" fill="none" xmlns="http://www.w3.org/2000/svg">
<path d="M16 32.3125C20.82 32.3125 24.7273 28.3671 24.7273 23.5V8.8125C24.7273 3.94543 20.82 0 16 0C11.18 0 7.27273 3.94543 7.27273 8.8125V23.5C7.27273 28.3671 11.18 32.3125 16 32.3125ZM30.5455 17.625H29.0909C28.2873 17.625 27.6364 18.2823 27.6364 19.0938V23.5C27.6364 30.3664 21.7736 35.8761 14.8373 35.1931C8.79182 34.5973 4.36364 29.1097 4.36364 22.9768V19.0938C4.36364 18.2823 3.71273 17.625 2.90909 17.625H1.45455C0.650909 17.625 0 18.2823 0 19.0938V22.7803C0 31.009 5.81545 38.3445 13.8182 39.4589V42.5938H8.72727C7.92364 42.5938 7.27273 43.251 7.27273 44.0625V45.5312C7.27273 46.3427 7.92364 47 8.72727 47H23.2727C24.0764 47 24.7273 46.3427 24.7273 45.5312V44.0625C24.7273 43.251 24.0764 42.5938 23.2727 42.5938H18.1818V39.4938C25.9736 38.4142 32 31.6607 32 23.5V19.0938C32 18.2823 31.3491 17.625 30.5455 17.625Z" fill="#F18D8D"/>
</svg>
