<svg width="237" height="21" viewBox="0 0 237 21" fill="none" xmlns="http://www.w3.org/2000/svg">
<path d="M12.11 10.76L5.48563 15.1763C5.43857 15.2076 5.38389 15.2255 5.32743 15.2282C5.27097 15.2309 5.21483 15.2183 5.165 15.1916C5.11517 15.1649 5.0735 15.1252 5.04445 15.0767C5.01539 15.0282 5.00003 14.9728 5 14.9163V6.08376C5.00003 6.02724 5.01539 5.97178 5.04445 5.92329C5.0735 5.8748 5.11517 5.8351 5.165 5.80842C5.21483 5.78174 5.27097 5.76908 5.32743 5.77178C5.38389 5.77448 5.43857 5.79245 5.48563 5.82376L12.11 10.24C12.1528 10.2686 12.1879 10.3072 12.2122 10.3526C12.2364 10.3979 12.2491 10.4486 12.2491 10.5C12.2491 10.5515 12.2364 10.6021 12.2122 10.6475C12.1879 10.6928 12.1528 10.7315 12.11 10.76V10.76Z" fill="white"/>
<rect x="127" width="2" height="21" rx="1" fill="white" fill-opacity="0.3"/>
<rect x="193" width="2" height="21" rx="1" fill="white" fill-opacity="0.3"/>
<rect x="115" width="2" height="21" rx="1" fill="white" fill-opacity="0.3"/>
<rect x="181" width="2" height="21" rx="1" fill="white" fill-opacity="0.3"/>
<rect x="133" y="3" width="2" height="15" rx="1" fill="white" fill-opacity="0.3"/>
<rect x="199" y="3" width="2" height="15" rx="1" fill="white" fill-opacity="0.3"/>
<rect x="121" y="3" width="2" height="15" rx="1" fill="white" fill-opacity="0.3"/>
<rect x="187" y="3" width="2" height="15" rx="1" fill="white" fill-opacity="0.3"/>
<rect x="109" y="6" width="2" height="9" rx="1" fill="white" fill-opacity="0.3"/>
<rect x="31" y="6" width="2" height="9" rx="1" fill="white"/>
<rect x="175" y="6" width="2" height="9" rx="1" fill="white" fill-opacity="0.3"/>
<rect x="103" y="8" width="2" height="5" rx="1" fill="white" fill-opacity="0.3"/>
<rect x="25" y="8" width="2" height="5" rx="1" fill="white"/>
<rect x="151" y="3" width="2" height="15" rx="1" fill="white" fill-opacity="0.3"/>
<rect x="217" y="3" width="2" height="15" rx="1" fill="white" fill-opacity="0.3"/>
<rect x="97" y="5" width="2" height="11" rx="1" fill="white"/>
<rect x="55" y="5" width="2" height="11" rx="1" fill="white"/>
<rect x="145" y="5" width="2" height="11" rx="1" fill="white" fill-opacity="0.3"/>
<rect x="211" y="5" width="2" height="11" rx="1" fill="white" fill-opacity="0.3"/>
<rect x="157" y="5" width="2" height="11" rx="1" fill="white" fill-opacity="0.3"/>
<rect x="223" y="5" width="2" height="11" rx="1" fill="white" fill-opacity="0.3"/>
<rect x="91" y="7" width="2" height="7" rx="1" fill="white"/>
<rect x="49" y="7" width="2" height="7" rx="1" fill="white"/>
<rect x="139" y="7" width="2" height="7" rx="1" fill="white" fill-opacity="0.3"/>
<rect x="205" y="7" width="2" height="7" rx="1" fill="white" fill-opacity="0.3"/>
<rect x="163" y="7" width="2" height="7" rx="1" fill="white" fill-opacity="0.3"/>
<rect x="229" y="7" width="2" height="7" rx="1" fill="white" fill-opacity="0.3"/>
<rect x="169" y="9" width="2" height="3" rx="1" fill="white" fill-opacity="0.3"/>
<rect x="235" y="9" width="2" height="3" rx="1" fill="white" fill-opacity="0.3"/>
<rect x="61" y="9" width="2" height="3" rx="1" fill="white"/>
<rect x="85" y="6" width="2" height="9" rx="1" fill="white"/>
<rect x="43" y="6" width="2" height="9" rx="1" fill="white"/>
<rect x="79" y="4" width="2" height="13" rx="1" fill="white"/>
<rect x="37" y="4" width="2" height="13" rx="1" fill="white"/>
<rect x="73" y="8" width="2" height="5" rx="1" fill="white"/>
<rect x="67" y="6" width="2" height="9" rx="1" fill="white"/>
</svg>
