<svg width="114" height="126" viewBox="0 0 114 126" fill="none" xmlns="http://www.w3.org/2000/svg">
<path d="M57.5478 51.2223C57.5113 51.5519 57.306 51.6709 57.0004 51.6755C57.1829 51.5198 57.3654 51.3733 57.5478 51.2223Z" fill="#597187"/>
<path d="M57.2148 49.6337L57.1464 49.7528C57.1464 49.7528 57.0004 49.7345 57.0004 49.7299C57.0551 49.6383 57.1235 49.6063 57.2148 49.6337Z" fill="#597187"/>
<path d="M57.0004 38.5966L57.0642 38.5783L57.0004 38.5966Z" fill="#597187"/>
<path d="M61.2324 6.08042C61.2324 6.08042 61.2643 6.03922 61.2643 6.03464C61.2598 6.03464 61.2324 6.08042 61.2324 6.08042Z" fill="white"/>
<path d="M82.5035 123.199C78.6666 125.382 74.6017 125.95 70.2584 125.167C65.2581 124.265 61.476 121.528 58.4512 117.595C56.7997 115.448 56.859 115.416 55.1709 117.554C47.1322 127.74 32.9207 128.253 24.1703 118.218C22.2952 116.066 20.338 114.684 17.9519 113.375C12.0985 110.166 8.95511 105.071 9.02355 98.3091C9.04636 96.0522 8.46695 94.5232 6.69223 93.0812C1.6281 88.9703 -1.25982 80.7944 2.28051 73.4104C3.09259 71.7166 3.00135 70.3844 1.99765 68.7593C-1.24157 63.5314 -0.447731 54.9709 3.69937 50.1139C4.881 48.7268 5.3053 47.5411 4.97681 45.6276C4.04155 40.1846 5.98964 35.2543 9.37028 31.2533C10.9899 29.3398 13.5265 27.7513 16.2137 26.9639C17.6736 26.5381 18.1435 25.7782 17.8789 24.089C17.1398 19.3876 18.6271 15.231 22.3545 12.3057C28.9105 7.15569 36.0778 3.11806 44.1895 0.787957C48.7792 -0.530453 52.8487 -0.425163 56.5259 2.89833C56.9046 3.24166 57.4521 3.38815 57.922 3.63078C57.9494 5.45732 59.35 6.8032 59.6328 8.54277C59.6237 14.3978 59.61 20.2528 59.6055 26.1078C59.6055 27.2294 59.464 28.4105 61.2798 27.44C62.3976 26.8449 63.6796 26.4283 64.9296 26.2452C66.3896 26.03 68.1232 25.7553 68.7756 27.6872C69.2091 28.9735 67.6077 30.4293 65.5182 30.8184C65.3676 30.8459 65.2171 30.8962 65.0711 30.8871C62.4386 30.7452 61.1475 32.4435 60.0617 34.4898C59.1127 36.2843 59.4549 38.1566 59.4595 40.0518C59.537 62.6571 59.5644 85.2623 59.6009 107.868C59.1584 109.456 58.7386 111.045 58.2733 112.624C57.995 113.572 58.1182 114.428 58.6885 115.229C62.6531 120.827 67.7765 124.261 74.88 124.32C77.517 124.343 79.9851 123.693 82.5035 123.199ZM54.4638 91.8269C54.4638 89.2679 54.4638 87.2308 54.4638 85.1891C54.4683 72.3895 54.4683 59.5899 54.4775 46.7904C54.4775 45.8702 54.4318 44.9684 54.0121 44.1169C52.7712 41.5991 51.1561 39.6536 48.0082 39.6673C46.822 39.6719 45.7042 39.1866 45.467 37.8133C45.2206 36.3621 46.3931 35.7716 47.3923 35.3138C49.2582 34.4669 51.1379 34.9659 52.8944 35.7533C54.0942 36.2935 54.5368 36.0783 54.5322 34.7324C54.5048 26.8769 54.6143 19.0214 54.4729 11.1704C54.3953 6.75285 50.9508 3.90087 46.9406 4.65163C45.1567 4.98581 43.3501 5.38866 41.6666 6.05244C39.609 6.86271 37.3644 7.37543 35.3205 9.10126C38.9201 10.6257 41.548 12.8276 43.1585 16.1053C44.1485 18.1196 43.7607 19.5295 41.7944 20.4359C39.8371 21.3423 39.0935 19.9278 38.4411 18.4537C36.8443 14.8418 32.4599 12.5621 28.9151 13.4868C24.6037 14.6129 22.2952 18.0372 22.7834 22.5692C22.9795 24.3774 23.5361 25.5036 25.7169 25.8652C34.1571 27.2569 39.6364 34.2655 39.7322 42.0157C39.755 43.7095 38.3361 45.2889 36.8717 45.211C35.1289 45.1195 34.9373 43.7873 34.8323 42.4323C34.8095 42.1302 34.7958 41.8235 34.7593 41.5213C33.9244 34.087 27.04 29.2528 19.1472 30.5712C12.8376 31.6241 8.35746 38.6739 10.2417 45.4262C11.0036 48.1592 10.2417 49.5233 8.51714 51.3178C3.23859 56.7929 3.98224 65.5548 9.90863 70.3295C12.5137 72.4307 15.47 73.392 18.7914 73.2501C19.9319 73.1998 20.9995 73.3371 21.3782 74.5914C21.7614 75.8686 20.8216 76.5462 19.9274 77.1596C18.6682 78.0294 17.222 78.2262 15.7803 77.9699C13.3942 77.5441 11.0218 77.0497 8.87299 75.7725C6.74241 74.509 6.4413 74.7059 6.00789 77.155C5.03612 82.6621 7.57731 88.1646 12.427 90.9525C13.7273 91.6987 14.8587 92.3121 14.4572 94.2531C12.8239 102.168 16.419 108.106 24.1064 110.362C25.3337 110.724 26.1959 111.283 26.8438 112.5C29.6131 117.714 34.0248 120.374 39.9147 120.598C45.5628 120.814 50.8277 117.659 52.9491 112.72C55.5952 106.572 54.6919 99.9525 50.887 95.8096C48.8476 93.5894 46.3977 92.2526 43.6056 91.3874C42.5426 91.0578 41.6027 90.6412 41.5845 89.2771C41.5662 87.9403 42.5198 87.4871 43.4824 86.9836C44.4724 86.4663 45.4077 86.7593 46.3475 87.0843C49.2309 88.0777 51.8405 89.5883 54.4638 91.8269Z" fill="white"/>
<path d="M27.6538 71.3738C25.7741 71.415 24.5286 71.2273 24.3644 69.6342C24.1591 67.6566 25.7331 67.1485 27.1428 66.9883C29.7707 66.6953 31.9834 65.8255 33.5984 63.6464C35.1131 61.6047 35.0447 61.3667 32.6495 60.7121C24.5606 58.5101 20.2127 52.1058 19.4554 44.0259C19.314 42.5015 21.2438 40.4553 22.7493 40.5102C24.4739 40.5743 24.6974 41.7554 24.702 43.2294C24.7385 49.3591 28.2241 54.2757 33.8813 55.9557C38.3295 57.2741 42.4401 56.5096 45.9576 53.2777C46.6237 52.6643 47.3446 52.0921 48.1019 51.6022C48.9459 51.0575 49.8264 51.0071 50.561 51.854C51.2818 52.6826 51.186 53.5478 50.5381 54.3398C48.4806 56.8484 46.058 58.9313 42.9192 59.8926C41.1855 60.4237 40.127 61.3804 39.2556 62.9735C36.6278 67.7802 32.7179 70.884 27.6538 71.3738Z" fill="white"/>
<path d="M42.3096 75.622C43.1536 75.6495 44.0524 75.8234 44.3717 76.89C44.6455 77.801 44.2303 78.474 43.5231 79.0737C42.6654 79.797 41.6937 80.0304 40.617 80.2227C34.1021 81.3671 30.2652 85.3773 29.412 91.6947C29.2432 92.9536 29.5535 93.5716 30.7579 94.1392C37.396 97.243 40.0148 103.006 40.7402 109.901C40.9409 111.823 39.5631 112.707 37.98 112.904C36.3102 113.114 35.8403 111.741 35.7171 110.372C35.4844 107.74 34.6267 105.341 33.2991 103.071C31.2415 99.5502 28.089 97.8839 24.1654 97.4536C23.6362 97.3941 23.1024 97.4032 22.5732 97.3529C21.46 97.243 20.4609 96.95 20.2054 95.6362C19.9453 94.2949 20.7848 93.4114 21.8204 93.2557C24.2339 92.8987 24.5122 91.3468 24.9364 89.328C26.7568 80.7675 35.8813 76.2263 42.3096 75.622Z" fill="white"/>
<path d="M39.12 124.321C46.2235 124.261 51.3469 120.823 55.3115 115.229C55.8772 114.428 56.0004 113.572 55.7267 112.624C55.2613 111.045 54.8416 109.452 54.3991 107.868C54.4401 85.2629 54.4629 62.6576 54.5405 40.0524C54.545 38.1572 54.8918 36.2849 53.9383 34.4904C52.8524 32.4395 51.5613 30.7411 48.9289 30.8876C48.7829 30.8968 48.6278 30.8464 48.4818 30.8189C46.3923 30.4344 44.7909 28.9741 45.2243 27.6877C45.8767 25.7513 47.6104 26.0306 49.0703 26.2457C50.3249 26.4288 51.6024 26.8454 52.7201 27.4405C54.5359 28.411 54.3945 27.2299 54.3945 26.1084C54.3899 20.2534 54.3762 14.3983 54.3671 8.54332C54.65 6.80375 56.0552 5.46245 56.078 3.63133C56.5433 3.39328 57.0954 3.24221 57.474 2.89888C61.1558 -0.424614 65.2208 -0.529904 69.8104 0.788506C77.9221 3.11861 85.0895 7.15624 91.6454 12.3063C95.3728 15.2315 96.8601 19.3882 96.121 24.0941C95.8564 25.7834 96.3263 26.5433 97.7863 26.969C100.473 27.7564 103.01 29.3449 104.63 31.2584C108.015 35.2594 109.958 40.1852 109.023 45.6327C108.695 47.5463 109.119 48.7365 110.301 50.119C114.448 54.9761 115.242 63.5366 112.002 68.7644C110.994 70.3896 110.903 71.7171 111.719 73.4155C115.26 80.7995 112.372 88.9755 107.308 93.0909C105.533 94.5329 104.954 96.0619 104.976 98.3188C105.045 105.08 101.901 110.175 96.048 113.384C93.662 114.694 91.7093 116.076 89.8297 118.228C81.0792 128.262 66.8677 127.75 58.829 117.564C57.141 115.426 57.2003 115.458 55.5487 117.605C52.5285 121.537 48.7418 124.27 43.7416 125.177C39.4029 125.96 35.3379 125.392 31.4964 123.208C34.0239 123.694 36.4921 124.344 39.12 124.321ZM67.6661 87.0803C68.606 86.7552 69.5412 86.4622 70.5313 86.9795C71.4939 87.4831 72.4474 87.9409 72.4292 89.273C72.4109 90.6372 71.4711 91.0538 70.4081 91.3834C67.616 92.2486 65.166 93.5853 63.1267 95.8056C59.3217 99.9485 58.4184 106.573 61.0645 112.716C63.1906 117.655 68.4509 120.81 74.0989 120.594C79.9934 120.37 84.4006 117.71 87.1699 112.496C87.8131 111.283 88.68 110.72 89.9072 110.358C97.5947 108.102 101.185 102.164 99.5564 94.2491C99.1549 92.3081 100.291 91.6947 101.587 90.9485C106.436 88.1606 108.978 82.6581 108.006 77.151C107.572 74.7018 107.271 74.505 105.141 75.7685C102.992 77.0411 100.619 77.5355 98.2334 77.9658C96.7917 78.2222 95.3455 78.0253 94.0863 77.1556C93.1921 76.5375 92.2522 75.8646 92.6355 74.5874C93.0141 73.3331 94.0817 73.1957 95.2223 73.2461C98.5436 73.388 101.5 72.4267 104.105 70.3255C110.031 65.5508 110.775 56.7843 105.497 51.3138C103.767 49.5193 103.006 48.1551 103.772 45.4222C105.656 38.6745 101.171 31.6201 94.8664 30.5672C86.9737 29.2488 80.0892 34.0783 79.2589 41.5219C79.2269 41.824 79.2087 42.1307 79.1859 42.4329C79.081 43.7833 78.8893 45.1155 77.1465 45.2116C75.6821 45.2894 74.2632 43.7146 74.286 42.0163C74.3864 34.266 79.8657 27.2574 88.3013 25.8658C90.4821 25.5041 91.0387 24.378 91.2348 22.5697C91.723 18.0377 89.4145 14.6135 85.1031 13.4874C81.5583 12.5626 77.1739 14.8424 75.5771 18.4543C74.9247 19.9283 74.1856 21.3383 72.2239 20.4365C70.2575 19.5301 69.8697 18.1201 70.8597 16.1059C72.4702 12.8281 75.0981 10.6262 78.6977 9.10181C76.6538 7.37598 74.4092 6.86326 72.3516 6.05299C70.6681 5.38921 68.8615 4.99094 67.0776 4.65218C63.0674 3.89684 59.6274 6.75339 59.5453 11.171C59.4039 19.0219 59.5134 26.8775 59.486 34.733C59.4814 36.0789 59.9194 36.294 61.1238 35.7538C62.8803 34.9664 64.76 34.4675 66.6259 35.3144C67.6251 35.7676 68.7976 36.3627 68.5512 37.8138C68.3185 39.1872 67.1962 39.6724 66.01 39.6679C62.8621 39.6541 61.247 41.5997 60.0061 44.1175C59.5864 44.969 59.5407 45.8708 59.5407 46.7909C59.5499 59.5905 59.5499 72.3901 59.5544 85.1896C59.5544 87.2267 59.5544 89.2684 59.5544 91.8274C62.1686 89.5889 64.7782 88.0782 67.6661 87.0803Z" fill="white"/>
<path d="M86.3534 71.3738C88.2331 71.415 89.4786 71.2273 89.6428 69.6342C89.8481 67.6566 88.2742 67.1485 86.8644 66.9883C84.2365 66.6953 82.0238 65.8255 80.4088 63.6464C78.8941 61.6047 78.9626 61.3667 81.3578 60.7121C89.4467 58.5101 93.7945 52.1058 94.5518 44.0259C94.6933 42.5015 92.7634 40.4553 91.2579 40.5102C89.5333 40.5743 89.3098 41.7554 89.3052 43.2294C89.2687 49.3591 85.7832 54.2757 80.1259 55.9557C75.6777 57.2741 71.5671 56.5096 68.0496 53.2777C67.3835 52.6643 66.6627 52.0921 65.9053 51.6022C65.0613 51.0575 64.1808 51.0071 63.4463 51.854C62.7254 52.6826 62.8212 53.5478 63.4691 54.3398C65.5267 56.8484 67.9492 58.9313 71.0881 59.8926C72.8217 60.4237 73.8802 61.3804 74.7516 62.9735C77.3795 67.7802 81.2893 70.884 86.3534 71.3738Z" fill="white"/>
<path d="M71.6995 75.622C70.8554 75.6495 69.9567 75.8234 69.6373 76.89C69.3636 77.801 69.7787 78.474 70.4859 79.0737C71.3436 79.797 72.3154 80.0304 73.3921 80.2227C79.907 81.3671 83.7439 85.3773 84.597 91.6947C84.7658 92.9536 84.4556 93.5716 83.2511 94.1392C76.613 97.243 73.9943 103.006 73.2689 109.901C73.0681 111.823 74.4459 112.707 76.0291 112.904C77.6988 113.114 78.1688 111.741 78.2919 110.372C78.5246 107.74 79.3823 105.341 80.7099 103.071C82.7675 99.5502 85.9201 97.8839 89.8436 97.4536C90.3728 97.3941 90.9066 97.4032 91.4359 97.3529C92.549 97.243 93.5482 96.95 93.8037 95.6362C94.0637 94.2949 93.2243 93.4114 92.1886 93.2557C89.7752 92.8987 89.4969 91.3468 89.0726 89.328C87.2522 80.7675 78.1277 76.2263 71.6995 75.622Z" fill="white"/>
<path d="M56.9428 92.3173C72.9276 92.3173 85.8859 79.3149 85.8859 63.2756C85.8859 47.2364 72.9276 34.234 56.9428 34.234C40.958 34.234 27.9998 47.2364 27.9998 63.2756C27.9998 79.3149 40.958 92.3173 56.9428 92.3173Z" fill="#EEF7FF"/>
<path d="M70.9493 87.9546L85.1973 90.3396L80.9224 77.7873L70.9493 87.9546Z" fill="#EEF7FF"/>
<path d="M41.1836 61.8748C41.0148 62.1998 40.805 62.5111 40.6818 62.8545C40.3989 63.6602 40.1936 64.4933 39.8879 65.2944C39.158 67.2126 37.3741 67.5422 36.0055 65.9994C35.5264 65.4592 35.02 65.2075 34.3037 65.2532C33.5601 65.299 32.8164 65.2716 32.0682 65.2624C31.4295 65.2578 31.0098 64.9145 31.0006 64.4109C30.9961 63.9074 31.4204 63.5503 32.05 63.5457C32.9031 63.5411 33.7563 63.5457 34.614 63.5411C35.5538 63.5366 36.3567 63.8387 36.9727 64.5803C37.1004 64.736 37.2327 64.887 37.3833 65.0198C37.7665 65.3494 38.0904 65.2944 38.2683 64.8138C38.5147 64.15 38.6789 63.4542 38.9253 62.7904C39.1306 62.2319 39.3542 61.6642 39.6553 61.1515C40.0385 60.4923 40.6544 60.149 41.43 60.1902C42.2193 60.2314 42.7439 60.7258 42.9355 61.4262C43.2914 62.7171 43.5469 64.0447 43.8161 65.3585C44.0122 66.3199 44.1719 67.2904 44.3498 68.2563C44.3727 68.3891 44.4411 68.5127 44.4913 68.6408C44.5415 68.6363 44.5916 68.6362 44.6373 68.6317C44.8061 67.2446 45.0296 65.8575 45.1254 64.4659C45.4494 59.9338 45.7003 55.3972 46.0425 50.8652C46.1519 49.4003 46.4394 47.9445 46.672 46.4888C46.7177 46.1912 46.8682 45.9028 47.0142 45.6327C47.2286 45.2345 47.5754 45.0239 48.0407 45.0331C48.5152 45.0468 48.8665 45.2894 48.9942 45.7197C49.2315 46.5392 49.5052 47.3677 49.5736 48.2101C49.8748 51.8448 50.1348 55.4842 50.3629 59.1281C50.6823 64.2095 50.956 69.2955 51.2526 74.3768C51.2708 74.7019 51.3347 75.0223 51.4533 75.3473C51.5674 74.0472 51.6951 72.7471 51.7864 71.447C52.0464 67.6246 52.2563 63.7975 52.5483 59.975C52.7034 57.9608 52.968 55.9511 53.2189 53.946C53.2782 53.4654 53.4653 52.9984 53.6478 52.5407C53.8257 52.092 54.1496 51.7991 54.6788 51.7807C55.2217 51.7624 55.6278 52.0096 55.8057 52.4812C56.0749 53.209 56.3669 53.9598 56.4444 54.7243C56.7501 57.6449 56.9554 60.5747 57.2428 63.4954C57.4527 65.6149 57.7356 67.7298 57.991 69.8494C58.0093 70.005 58.0686 70.1607 58.1097 70.3117C58.1599 70.3117 58.2055 70.3163 58.2557 70.3163C58.429 69.0849 58.5978 67.858 58.7712 66.6266C59.0221 64.8229 59.2548 63.0147 59.5468 61.2202C59.6243 60.7487 59.8388 60.2726 60.0943 59.8652C60.7603 58.7848 62.1975 58.7253 62.8362 59.8194C63.2559 60.5335 63.4703 61.3987 63.6437 62.2227C63.8946 63.3947 64.0224 64.5986 64.2094 65.7843C64.2414 65.9811 64.2779 66.1917 64.3737 66.3611C64.4923 66.5625 64.6748 66.7273 64.8345 66.9058C64.9987 66.7273 65.2587 66.5717 65.3135 66.3611C65.5644 65.3769 65.7378 64.3697 65.975 63.3809C66.1073 62.8362 66.2579 62.2777 66.5088 61.7833C67.1293 60.5747 68.7124 60.3458 69.6157 61.3621C70.0218 61.8199 70.2727 62.4425 70.519 63.0193C70.7608 63.5869 70.8886 64.2004 71.1076 64.7772C71.2992 65.2807 71.7144 65.3631 72.0702 64.9557C72.3531 64.6307 72.5675 64.2416 72.7865 63.8616C73.7172 62.2731 75.0859 61.9435 76.5869 62.9964C77.1343 63.3809 77.7001 63.5595 78.3662 63.5411C79.3653 63.5137 80.3644 63.532 81.3636 63.5366C81.9612 63.5411 82.3718 63.8845 82.3855 64.3743C82.3992 64.8596 81.984 65.2532 81.4001 65.2532C80.1135 65.2487 78.8178 65.2716 77.5358 65.1617C76.9884 65.1159 76.4226 64.8458 75.939 64.5483C74.9125 63.9165 74.7437 63.9348 74.105 64.9786C73.8586 65.3814 73.6031 65.7889 73.2883 66.1322C72.1204 67.3957 70.3411 67.1439 69.6157 65.5874C69.2781 64.8687 69.0911 64.0767 68.8036 63.3306C68.6759 62.9964 68.4569 62.6942 68.2835 62.3784C68.206 62.3875 68.1284 62.3921 68.0509 62.4013C67.9322 62.7263 67.7817 63.0467 67.7087 63.3809C67.476 64.4292 67.2935 65.4867 67.0426 66.5305C66.9468 66.9287 66.7552 67.3224 66.5225 67.6612C65.6283 68.9887 63.7806 68.9475 63.0917 67.5101C62.6628 66.6129 62.4849 65.5783 62.275 64.5895C62.0743 63.6464 61.983 62.6805 61.8279 61.7283C61.7823 61.4445 61.6682 61.1744 61.5816 60.8997C61.5177 60.8906 61.4538 60.8814 61.3899 60.8723C61.2394 61.504 61.0341 62.1312 60.9474 62.7721C60.6645 64.887 60.4592 67.0111 60.1581 69.1215C60.0395 69.9409 59.7886 70.7558 59.492 71.5294C59.2639 72.1337 58.7803 72.5274 58.0595 72.5137C57.3432 72.4999 56.9189 72.0559 56.7592 71.4562C56.4262 70.211 56.0886 68.9521 55.9563 67.6795C55.5639 63.9257 55.2765 60.1581 54.9389 56.3998C54.9069 56.0656 54.8431 55.736 54.688 55.3926C54.6332 55.7955 54.5511 56.1938 54.5237 56.6012C54.2545 60.2039 54.0127 63.8067 53.7253 67.4094C53.4607 70.7375 53.1687 74.061 52.8585 77.3844C52.8083 77.9017 52.6441 78.419 52.4661 78.9134C52.2289 79.5864 51.8548 79.8519 51.3256 79.829C50.7142 79.8015 50.3949 79.3987 50.2762 78.8768C50.0527 77.9017 49.8018 76.9175 49.7333 75.9287C49.4003 70.884 49.1265 65.8392 48.8254 60.7945C48.5973 56.972 48.3601 53.1495 48.1274 49.327C48.0635 49.3225 47.9951 49.3179 47.9312 49.3133C47.8674 49.8443 47.7852 50.3799 47.7487 50.911C47.4796 54.9715 47.2606 59.0366 46.9412 63.0925C46.7861 65.0701 46.4713 67.034 46.1976 68.9979C46.1474 69.3504 45.9968 69.6983 45.8326 70.0233C45.3444 70.9938 44.2495 71.1907 43.5651 70.3392C43.1272 69.7944 42.7941 69.0849 42.6436 68.4028C42.2786 66.7502 42.055 65.0701 41.7494 63.4038C41.6581 62.8911 41.4847 62.3921 41.3524 61.8886C41.3068 61.8886 41.2429 61.884 41.1836 61.8748Z" fill="#528FC6"/>
</svg>
