<svg width="272" height="24" viewBox="0 0 272 24" fill="none" xmlns="http://www.w3.org/2000/svg">
<path d="M13.8984 12.2792L6.29573 17.319C6.24172 17.3547 6.17898 17.3752 6.11418 17.3783C6.04938 17.3814 5.98495 17.3669 5.92776 17.3365C5.87056 17.306 5.82275 17.2607 5.7894 17.2054C5.75605 17.1501 5.73842 17.0868 5.73839 17.0223V6.94274C5.73842 6.87823 5.75605 6.81494 5.7894 6.75961C5.82275 6.70427 5.87056 6.65897 5.92776 6.62852C5.98495 6.59808 6.04938 6.58362 6.11418 6.58671C6.17898 6.58979 6.24172 6.61029 6.29573 6.64603L13.8984 11.6858C13.9475 11.7184 13.9878 11.7625 14.0156 11.8142C14.0435 11.866 14.0581 11.9238 14.0581 11.9825C14.0581 12.0412 14.0435 12.099 14.0156 12.1508C13.9878 12.2025 13.9475 12.2466 13.8984 12.2792V12.2792Z" fill="white"/>
<rect x="145.755" width="2.29535" height="23.9649" rx="1.1444" fill="white" fill-opacity="0.3"/>
<rect x="221.502" width="2.29535" height="23.9649" rx="1.1444" fill="white" fill-opacity="0.3"/>
<rect x="131.983" width="2.29535" height="23.9649" rx="1.1444" fill="white" fill-opacity="0.3"/>
<rect x="207.73" width="2.29535" height="23.9649" rx="1.1444" fill="white" fill-opacity="0.3"/>
<rect x="152.641" y="3.42359" width="2.29535" height="17.1178" rx="1.1444" fill="white" fill-opacity="0.3"/>
<rect x="228.388" y="3.42359" width="2.29535" height="17.1178" rx="1.1444" fill="white" fill-opacity="0.3"/>
<rect x="138.869" y="3.42359" width="2.29537" height="17.1178" rx="1.14441" fill="white" fill-opacity="0.3"/>
<rect x="214.616" y="3.42359" width="2.29535" height="17.1178" rx="1.1444" fill="white" fill-opacity="0.3"/>
<rect x="125.097" y="6.84718" width="2.29535" height="10.2707" rx="1.1444" fill="white" fill-opacity="0.3"/>
<rect x="35.5781" y="6.84718" width="2.29535" height="10.2707" rx="1.1444" fill="white"/>
<rect x="200.844" y="6.84718" width="2.29537" height="10.2707" rx="1.14441" fill="white" fill-opacity="0.3"/>
<rect x="118.211" y="9.12945" width="2.29535" height="5.70594" rx="1.1444" fill="white" fill-opacity="0.3"/>
<rect x="28.692" y="9.12945" width="2.29536" height="5.70594" rx="1.14441" fill="white"/>
<rect x="173.3" y="3.42359" width="2.29535" height="17.1178" rx="1.1444" fill="white" fill-opacity="0.3"/>
<rect x="249.046" y="3.42359" width="2.29537" height="17.1178" rx="1.14441" fill="white" fill-opacity="0.3"/>
<rect x="111.325" y="5.70598" width="2.29535" height="12.5531" rx="1.1444" fill="white"/>
<rect x="63.1224" y="5.70598" width="2.29536" height="12.5531" rx="1.14441" fill="white"/>
<rect x="166.414" y="5.70598" width="2.29537" height="12.5531" rx="1.14441" fill="white" fill-opacity="0.3"/>
<rect x="242.16" y="5.70598" width="2.29537" height="12.5531" rx="1.14441" fill="white" fill-opacity="0.3"/>
<rect x="180.186" y="5.70598" width="2.29537" height="12.5531" rx="1.14441" fill="white" fill-opacity="0.3"/>
<rect x="255.933" y="5.70598" width="2.29534" height="12.5531" rx="1.14439" fill="white" fill-opacity="0.3"/>
<rect x="104.439" y="7.98837" width="2.29535" height="7.98831" rx="1.1444" fill="white"/>
<rect x="56.2363" y="7.98837" width="2.29536" height="7.98831" rx="1.14441" fill="white"/>
<rect x="159.527" y="7.98837" width="2.29537" height="7.98831" rx="1.14441" fill="white" fill-opacity="0.3"/>
<rect x="235.274" y="7.98837" width="2.29537" height="7.98831" rx="1.14441" fill="white" fill-opacity="0.3"/>
<rect x="187.072" y="7.98837" width="2.29535" height="7.98831" rx="1.1444" fill="white" fill-opacity="0.3"/>
<rect x="262.819" y="7.98837" width="2.29537" height="7.98831" rx="1.14441" fill="white" fill-opacity="0.3"/>
<rect x="193.958" y="10.2706" width="2.29535" height="3.42356" rx="1.1444" fill="white" fill-opacity="0.3"/>
<rect x="269.705" y="10.2706" width="2.29534" height="3.42356" rx="1.14439" fill="white" fill-opacity="0.3"/>
<rect x="70.0084" y="10.2706" width="2.29535" height="3.42356" rx="1.1444" fill="white"/>
<rect x="97.5528" y="6.84718" width="2.29536" height="10.2707" rx="1.14441" fill="white"/>
<rect x="49.3502" y="6.84718" width="2.29535" height="10.2707" rx="1.1444" fill="white"/>
<rect x="90.6667" y="4.56478" width="2.29536" height="14.8354" rx="1.14441" fill="white"/>
<rect x="42.4641" y="4.56478" width="2.29536" height="14.8354" rx="1.14441" fill="white"/>
<rect x="83.7806" y="9.12945" width="2.29537" height="5.70594" rx="1.14441" fill="white"/>
<rect x="76.8945" y="6.84718" width="2.29536" height="10.2707" rx="1.14441" fill="white"/>
</svg>
