<svg width="40" height="40" viewBox="0 0 40 40" fill="none" xmlns="http://www.w3.org/2000/svg">
<circle cx="20" cy="20" r="20" fill="#FCA311"/>
<path d="M27.0586 15.9639C27.0586 15.4742 26.8726 15.0046 26.5417 14.6584C26.2107 14.3121 25.7619 14.1176 25.2939 14.1176H14.7056C14.2376 14.1176 13.7887 14.3121 13.4578 14.6584C13.1268 15.0046 12.9409 15.4742 12.9409 15.9639V23.3491C12.9409 23.8388 13.1268 24.3084 13.4578 24.6547C13.7887 25.0009 14.2376 25.1954 14.7056 25.1954H23.1639C23.3979 25.1955 23.6222 25.2928 23.7877 25.4659L26.305 28.0997C26.3667 28.1643 26.4453 28.2084 26.5309 28.2263C26.6165 28.2442 26.7052 28.2351 26.7859 28.2003C26.8666 28.1654 26.9356 28.1062 26.9841 28.0303C27.0326 27.9544 27.0585 27.8651 27.0586 27.7738V15.9639ZM16.0292 16.8871H23.9703C24.0873 16.8871 24.1996 16.9357 24.2823 17.0223C24.365 17.1088 24.4115 17.2262 24.4115 17.3486C24.4115 17.4711 24.365 17.5885 24.2823 17.675C24.1996 17.7616 24.0873 17.8102 23.9703 17.8102H16.0292C15.9121 17.8102 15.7999 17.7616 15.7172 17.675C15.6345 17.5885 15.588 17.4711 15.588 17.3486C15.588 17.2262 15.6345 17.1088 15.7172 17.0223C15.7999 16.9357 15.9121 16.8871 16.0292 16.8871ZM16.0292 19.1949H23.9703C24.0873 19.1949 24.1996 19.2436 24.2823 19.3301C24.365 19.4167 24.4115 19.5341 24.4115 19.6565C24.4115 19.7789 24.365 19.8963 24.2823 19.9829C24.1996 20.0695 24.0873 20.1181 23.9703 20.1181H16.0292C15.9121 20.1181 15.7999 20.0695 15.7172 19.9829C15.6345 19.8963 15.588 19.7789 15.588 19.6565C15.588 19.5341 15.6345 19.4167 15.7172 19.3301C15.7999 19.2436 15.9121 19.1949 16.0292 19.1949ZM16.0292 21.5028H20.4409C20.5579 21.5028 20.6701 21.5515 20.7529 21.638C20.8356 21.7246 20.8821 21.842 20.8821 21.9644C20.8821 22.0868 20.8356 22.2042 20.7529 22.2908C20.6701 22.3773 20.5579 22.426 20.4409 22.426H16.0292C15.9121 22.426 15.7999 22.3773 15.7172 22.2908C15.6345 22.2042 15.588 22.0868 15.588 21.9644C15.588 21.842 15.6345 21.7246 15.7172 21.638C15.7999 21.5515 15.9121 21.5028 16.0292 21.5028Z" fill="white"/>
</svg>
